<?xml version="1.0" encoding="UTF-8"?>
<svg id="Capa_1" xmlns="http://www.w3.org/2000/svg" viewBox="0 0 424.76 490.44">
  <defs>
    <style>
      .cls-1 {
        fill: #fff;
      }
    </style>
  </defs>
  <path class="cls-1" d="M291.35,203.65l-78.97-78.97-78.97,78.97H0v143.4C0,426.11,64.33,490.44,143.39,490.44c11.68,0,23.28-1.44,34.52-4.22,11.29,2.78,22.87,4.21,34.47,4.21s22.98-1.37,34.17-4.1c.14-.04.28-.08.42-.12,11.21,2.76,22.75,4.23,34.39,4.23,79.07,0,143.4-64.33,143.4-143.39v-143.4h-133.41ZM276.17,203.82c-23.05.83-44.74,7.05-63.79,17.54-19.05-10.5-40.74-16.72-63.79-17.54l63.79-63.79,63.79,63.79ZM275.94,347.05c0,46.12-24.28,89.2-63.56,113.2-39.28-24.01-63.55-67.09-63.55-113.2s25.47-89.83,63.56-113.14c38.09,23.31,63.56,65.31,63.56,113.14ZM10.85,347.05v-132.54h111.71l-21.36,21.36c-27.08,27.08-42,63.09-42,101.4s14.91,74.31,42,101.39l9.79,9.79c13.02,13.02,28.39,23.32,45.16,30.48-4.23.4-8.48.67-12.75.67-73.08,0-132.54-59.46-132.54-132.54ZM179.29,475.41c-22.87-5.87-43.84-17.85-60.63-34.64l-9.79-9.79c-25.04-25.04-38.82-58.32-38.82-93.72s13.79-68.69,38.82-93.73l29.03-29.03h5.49c20.86,0,40.6,4.84,58.17,13.46-38.32,25.77-63.6,69.53-63.6,119.09s27.47,98.63,71.69,124.21l2.72,1.57,2.72-1.57c44.23-25.58,71.7-73.18,71.7-124.21s-25.27-93.32-63.59-119.09c17.57-8.62,37.31-13.46,58.17-13.46h5.49l29.03,29.03c51.68,51.68,51.68,135.77,0,187.45l-9.79,9.79h0c-16.49,16.49-36.98,28.25-59.36,34.24-.09-.02-.18-.04-.26-.06l-.04.15c-.82.22-1.63.49-2.46.69-21.19,5.18-43.56,5.05-64.69-.37ZM413.91,347.05c0,73.08-59.46,132.54-132.54,132.54-4.28,0-8.53-.28-12.77-.68,16.77-7.16,32.14-17.43,45.18-30.47l9.79-9.79c55.91-55.91,55.91-146.88,0-202.79l-21.36-21.36h111.71v132.54Z"/>
  <path class="cls-1" d="M212.38,78.29c21.58,0,39.14-17.56,39.14-39.15S233.96,0,212.38,0s-39.14,17.56-39.14,39.14,17.56,39.15,39.14,39.15ZM212.38,10.85c15.6,0,28.29,12.69,28.29,28.29s-12.69,28.3-28.29,28.3-28.29-12.69-28.29-28.3,12.69-28.29,28.29-28.29Z"/>
</svg>