<?xml version="1.0" encoding="UTF-8"?>
<svg id="Capa_1" xmlns="http://www.w3.org/2000/svg" viewBox="0 0 490.44 384.87">
  <defs>
    <style>
      .cls-1 {
        fill: #fff;
      }
    </style>
  </defs>
  <g>
    <path class="cls-1" d="M129.96,91.34l-35.22-35.22-35.22,35.22H0v63.97c0,35.27,28.69,63.96,63.96,63.96,5.21,0,10.38-.64,15.4-1.88,5.03,1.24,10.2,1.88,15.38,1.88s10.25-.61,15.24-1.83c.06-.02.12-.04.19-.05,5,1.23,10.15,1.89,15.34,1.89,35.27,0,63.97-28.69,63.97-63.96v-63.97h-59.51ZM123.19,91.42c-10.28.37-19.96,3.14-28.45,7.83-8.5-4.68-18.17-7.46-28.45-7.83l28.45-28.45,28.45,28.45ZM123.09,155.31c0,20.57-10.83,39.79-28.35,50.5-17.52-10.71-28.35-29.93-28.35-50.5s11.36-40.07,28.35-50.47c16.99,10.4,28.35,29.13,28.35,50.47ZM4.84,155.31v-59.12h49.83l-9.53,9.53c-12.08,12.08-18.73,28.14-18.73,45.23s6.65,33.15,18.73,45.23l4.37,4.36c5.81,5.81,12.67,10.4,20.14,13.59-1.89.18-3.78.3-5.69.3-32.6,0-59.12-26.52-59.12-59.12ZM79.98,212.57c-10.2-2.62-19.55-7.96-27.05-15.45l-4.36-4.36c-11.17-11.17-17.32-26.01-17.32-41.81s6.15-30.64,17.32-41.81l12.95-12.95h2.45c9.3,0,18.11,2.16,25.95,6-17.1,11.5-28.37,31.02-28.37,53.12s12.25,43.99,31.98,55.41l1.21.7,1.21-.7c19.73-11.41,31.98-32.64,31.98-55.41s-11.27-41.63-28.37-53.12c7.84-3.84,16.64-6,25.95-6h2.45l12.95,12.95c23.05,23.05,23.05,60.56,0,83.62l-4.36,4.36h0c-7.36,7.36-16.5,12.6-26.48,15.28-.04-.01-.08-.02-.12-.03l-.02.07c-.37.1-.73.22-1.1.31-9.45,2.31-19.43,2.25-28.86-.17ZM184.63,155.31c0,32.6-26.52,59.12-59.12,59.12-1.91,0-3.81-.12-5.7-.3,7.48-3.19,14.34-7.77,20.15-13.59l4.36-4.36c24.94-24.94,24.94-65.52,0-90.46l-9.53-9.53h49.83v59.12Z"/>
    <path class="cls-1" d="M94.74,35.42c9.63,0,17.46-7.83,17.46-17.46S104.37.5,94.74.5s-17.46,7.83-17.46,17.46,7.83,17.46,17.46,17.46ZM94.74,5.34c6.96,0,12.62,5.66,12.62,12.62s-5.66,12.62-12.62,12.62-12.62-5.66-12.62-12.62,5.66-12.62,12.62-12.62Z"/>
  </g>
  <g>
    <path class="cls-1" d="M35.69,297.65c-1.52-1.37-3.21-2.51-5.1-3.43-1.88-.91-3.8-1.74-5.74-2.49-2.23-.86-4.37-1.77-6.43-2.74-2.06-.97-3.71-2.13-4.97-3.47-1.26-1.34-1.89-2.98-1.89-4.93,0-2.57.99-4.63,2.96-6.17,1.97-1.54,4.61-2.31,7.93-2.31,2.4,0,4.86.4,7.37,1.2,2.51.8,4.83,1.74,6.94,2.83l3.17-6.34c-2.34-1.43-5.04-2.63-8.1-3.6-3.06-.97-6.58-1.46-10.58-1.46-3.54.12-6.69.87-9.43,2.27-2.74,1.4-4.9,3.32-6.47,5.74-1.57,2.43-2.36,5.27-2.36,8.53,0,2.69.51,4.97,1.54,6.86,1.03,1.88,2.4,3.47,4.11,4.76,1.72,1.29,3.57,2.37,5.57,3.26,2,.89,3.97,1.7,5.91,2.44,2.06.8,4,1.7,5.83,2.7,1.83,1,3.3,2.2,4.41,3.6s1.67,3.16,1.67,5.27c0,2.46-.63,4.43-1.89,5.91s-2.84,2.58-4.76,3.3c-1.92.72-3.84,1.07-5.78,1.07-1.83,0-3.71-.27-5.66-.81-1.94-.54-3.8-1.26-5.57-2.14-1.77-.88-3.34-1.81-4.71-2.78l-3.68,6.51c1.66,1.09,3.54,2.13,5.65,3.13,2.11,1,4.41,1.81,6.9,2.44,2.49.63,5.1.94,7.84.94,4.17,0,7.77-.77,10.8-2.31,3.03-1.54,5.36-3.66,6.98-6.34s2.44-5.66,2.44-8.91c0-2.97-.44-5.46-1.33-7.46-.89-2-2.09-3.68-3.6-5.06Z"/>
    <polygon class="cls-1" points="71.47 299.88 100.01 299.88 100.01 291.91 71.47 291.91 71.47 273.06 103.44 273.06 103.44 265.09 63.16 265.09 63.16 327.05 104.64 327.05 104.64 319.08 71.47 319.08 71.47 299.88"/>
    <polygon class="cls-1" points="135.91 265.09 127.6 265.09 127.6 327.05 167.37 327.05 167.37 319.08 135.91 319.08 135.91 265.09"/>
    <polygon class="cls-1" points="189.47 327.05 197.79 327.05 197.79 300.74 222.73 300.74 222.73 292.85 197.79 292.85 197.79 273.06 226.24 273.06 226.24 265.09 189.47 265.09 189.47 327.05"/>
    <path class="cls-1" d="M283.14,318.3c-2.46.97-5.26,1.46-8.4,1.46-3.49,0-6.63-.6-9.43-1.8-2.8-1.2-5.18-2.86-7.16-4.97-1.97-2.11-3.48-4.61-4.54-7.5-1.06-2.88-1.58-6.01-1.58-9.38s.59-6.41,1.76-9.3c1.17-2.88,2.78-5.41,4.84-7.58,2.06-2.17,4.43-3.86,7.11-5.06,2.68-1.2,5.54-1.8,8.57-1.8s5.67.52,8.1,1.54c2.43,1.03,4.5,2.12,6.21,3.26l3.34-7.71c-2.17-1.37-4.77-2.56-7.8-3.55-3.03-1-6.4-1.5-10.11-1.5-4.46,0-8.56.8-12.3,2.4-3.74,1.6-6.98,3.84-9.73,6.73s-4.87,6.28-6.39,10.2c-1.51,3.91-2.27,8.18-2.27,12.81,0,4.23.73,8.21,2.19,11.95,1.46,3.74,3.53,7.04,6.21,9.9,2.68,2.86,5.96,5.11,9.81,6.77,3.86,1.66,8.18,2.51,12.98,2.57,2.8,0,5.38-.29,7.75-.86,2.37-.57,4.44-1.29,6.21-2.14,1.77-.86,3.17-1.63,4.2-2.31l-3.51-7.37c-1.6,1.2-3.63,2.29-6.08,3.26Z"/>
    <polygon class="cls-1" points="336.19 262.52 309.11 327.05 317.25 327.05 336.08 280.95 354.18 327.05 363.7 327.05 336.7 262.52 336.19 262.52"/>
    <path class="cls-1" d="M417.69,297.86c1.66-1.91,2.84-4.04,3.56-6.38.71-2.34,1.07-4.74,1.07-7.2,0-3.14-.56-5.9-1.67-8.27-1.11-2.37-2.66-4.37-4.63-6-1.97-1.63-4.29-2.85-6.94-3.68-2.66-.83-5.56-1.24-8.7-1.24h-16.45v61.96h8.31v-22.8h9.17c.71,0,1.37-.04,2.03-.08l14.59,22.88h9.6l-15.56-25.03c2.24-1.11,4.16-2.46,5.62-4.15ZM401.23,296.28h-9v-23.22h9.6c2.17,0,4.01.37,5.53,1.11,1.51.74,2.74,1.69,3.68,2.83.94,1.15,1.63,2.39,2.06,3.73.43,1.34.64,2.64.64,3.9s-.2,2.49-.6,3.86c-.4,1.37-1.06,2.64-1.97,3.81-.91,1.17-2.19,2.13-3.81,2.87-1.63.74-3.67,1.11-6.13,1.11Z"/>
    <polygon class="cls-1" points="457.28 319.08 457.28 299.88 485.81 299.88 485.81 291.91 457.28 291.91 457.28 273.06 489.24 273.06 489.24 265.09 448.96 265.09 448.96 327.05 490.44 327.05 490.44 319.08 457.28 319.08"/>
  </g>
  <g>
    <path class="cls-1" d="M7.69,375.65c-.06-.03-.14-.04-.2-.06,0,0,.02,0,.03,0,.72-.37,1.29-.89,1.69-1.54s.61-1.43.61-2.31c0-1.46-.49-2.54-1.46-3.24-.97-.69-2.31-1.04-4.01-1.04H0v16.9h5.03c.72,0,1.41-.09,2.08-.27.67-.18,1.27-.46,1.8-.84.53-.38.95-.87,1.26-1.47.31-.6.47-1.32.47-2.16,0-.92-.26-1.72-.8-2.39-.53-.67-1.25-1.19-2.15-1.57ZM2.27,369.62h2.2c.92,0,1.65.2,2.2.61s.82,1.05.82,1.94c0,.75-.21,1.38-.63,1.9-.42.52-1.1.78-2.03.78h-2.55v-5.23ZM7.86,381.1c-.3.39-.72.68-1.24.87-.52.19-1.1.28-1.72.28h-2.64v-5.21h2.5c.58,0,1.14.08,1.68.25.55.16.99.43,1.34.81.35.37.53.89.53,1.54,0,.59-.15,1.08-.46,1.47Z"/>
    <polygon class="cls-1" points="21.39 376.94 29.17 376.94 29.17 374.76 21.39 374.76 21.39 369.62 30.1 369.62 30.1 367.45 19.12 367.45 19.12 384.35 30.43 384.35 30.43 382.17 21.39 382.17 21.39 376.94"/>
    <path class="cls-1" d="M44.73,366.75l-7.39,17.6h2.22l1.81-4.44h6.51l1.74,4.44h2.59l-7.36-17.6h-.14ZM42.19,377.94l2.52-6.17,2.42,6.17h-4.94Z"/>
    <path class="cls-1" d="M69.95,378.36c0,.76-.18,1.45-.54,2.04-.36.6-.85,1.07-1.47,1.42-.62.34-1.33.51-2.13.51s-1.45-.17-2.06-.51c-.61-.34-1.1-.81-1.46-1.42-.37-.6-.55-1.28-.55-2.04v-10.91h-2.24v10.98c0,1.23.28,2.31.84,3.23s1.32,1.63,2.27,2.13c.95.5,2.02.75,3.2.75s2.26-.25,3.21-.75,1.72-1.21,2.29-2.13.85-2,.85-3.23v-10.98h-2.22v10.91Z"/>
    <polygon class="cls-1" points="80.24 369.62 84.65 369.62 84.65 384.35 86.92 384.35 86.92 369.62 91.46 369.62 91.46 367.45 80.24 367.45 80.24 369.62"/>
    <polygon class="cls-1" points="105.42 376.14 100.73 367.45 97.95 367.45 104.22 378.71 104.22 384.35 106.48 384.35 106.48 378.71 112.79 367.45 110.04 367.45 105.42 376.14"/>
    <path class="cls-1" d="M141.82,376.39c.45-.52.78-1.1.97-1.74.2-.64.29-1.29.29-1.96,0-.86-.15-1.61-.46-2.26-.3-.64-.72-1.19-1.26-1.64-.54-.44-1.17-.78-1.89-1-.72-.23-1.52-.34-2.37-.34h-4.49v16.9h2.27v-6.22h2.5c.2,0,.36-.03.54-.04l4,6.26h2.62l-4.26-6.85c.61-.3,1.15-.65,1.55-1.11ZM137.33,375.96h-2.45v-6.33h2.62c.59,0,1.1.1,1.51.3.41.2.75.46,1,.77s.45.65.56,1.02c.12.37.17.72.17,1.06s-.06.68-.16,1.05c-.11.37-.29.72-.54,1.04-.25.32-.6.58-1.04.78-.45.2-1,.3-1.67.3Z"/>
    <path class="cls-1" d="M165.98,369.84c-.8-.8-1.72-1.43-2.76-1.89s-2.15-.69-3.33-.69-2.32.23-3.35.69-1.95,1.09-2.75,1.89-1.41,1.72-1.86,2.76c-.44,1.04-.67,2.14-.67,3.31,0,1.23.22,2.37.67,3.41.45,1.04,1.06,1.96,1.86,2.74.8.78,1.71,1.39,2.75,1.82,1.04.44,2.15.65,3.35.65s2.29-.22,3.33-.67c1.04-.44,1.96-1.06,2.76-1.85.8-.79,1.43-1.7,1.88-2.75.45-1.04.68-2.16.68-3.36s-.23-2.27-.68-3.31c-.45-1.03-1.08-1.96-1.88-2.76ZM165.71,378.42c-.33.77-.77,1.45-1.33,2.04-.56.59-1.22,1.06-1.99,1.39-.76.34-1.58.5-2.45.5s-1.71-.17-2.48-.5c-.76-.33-1.43-.8-2.01-1.39-.58-.59-1.03-1.27-1.36-2.04-.33-.77-.49-1.6-.49-2.49s.16-1.73.47-2.51c.31-.79.76-1.48,1.33-2.07s1.25-1.06,2.01-1.4c.76-.34,1.59-.52,2.48-.52s1.69.17,2.46.5c.76.34,1.43.8,2.01,1.39.58.59,1.03,1.28,1.36,2.07s.49,1.62.49,2.51-.16,1.74-.49,2.51Z"/>
    <path class="cls-1" d="M187.26,378.36c0,.76-.18,1.45-.54,2.04-.36.6-.85,1.07-1.47,1.42-.62.34-1.33.51-2.13.51s-1.45-.17-2.06-.51c-.61-.34-1.1-.81-1.46-1.42-.37-.6-.55-1.28-.55-2.04v-10.91h-2.24v10.98c0,1.23.28,2.31.84,3.23s1.32,1.63,2.27,2.13c.95.5,2.02.75,3.2.75s2.26-.25,3.21-.75,1.72-1.21,2.29-2.13.85-2,.85-3.23v-10.98h-2.22v10.91Z"/>
    <polygon class="cls-1" points="197.54 369.62 201.96 369.62 201.96 384.35 204.22 384.35 204.22 369.62 208.76 369.62 208.76 367.45 197.54 367.45 197.54 369.62"/>
    <rect class="cls-1" x="217.03" y="367.45" width="2.27" height="16.9"/>
    <polygon class="cls-1" points="241.34 379.68 228.95 366.93 228.83 366.93 228.83 384.35 231.1 384.35 231.06 372.3 243.47 384.88 243.54 384.88 243.54 367.45 241.29 367.45 241.34 379.68"/>
    <polygon class="cls-1" points="255.34 382.17 255.34 376.94 263.12 376.94 263.12 374.76 255.34 374.76 255.34 369.62 264.06 369.62 264.06 367.45 253.07 367.45 253.07 384.35 264.38 384.35 264.38 382.17 255.34 382.17"/>
  </g>
</svg>