<?xml version="1.0" encoding="UTF-8"?>
<svg id="Capa_1" xmlns="http://www.w3.org/2000/svg" viewBox="0 0 490.44 140.65">
  <defs>
    <style>
      .cls-1 {
        fill: #fff;
      }
    </style>
  </defs>
  <g>
    <path class="cls-1" d="M83.55,58.4l-22.65-22.65-22.65,22.65H0v41.12c0,22.67,18.45,41.12,41.12,41.12,3.35,0,6.68-.41,9.9-1.21,3.24.8,6.56,1.21,9.89,1.21s6.59-.39,9.8-1.18c.04-.01.08-.02.12-.03,3.21.79,6.52,1.21,9.86,1.21,22.67,0,41.12-18.45,41.12-41.12v-41.12h-38.26ZM79.2,58.45c-6.61.24-12.83,2.02-18.29,5.03-5.46-3.01-11.68-4.79-18.29-5.03l18.29-18.29,18.29,18.29ZM79.13,99.52c0,13.23-6.96,25.58-18.23,32.46-11.27-6.88-18.23-19.24-18.23-32.46s7.31-25.76,18.23-32.45c10.92,6.68,18.23,18.73,18.23,32.45ZM3.11,99.52v-38.01h32.04l-6.13,6.13c-7.77,7.77-12.04,18.09-12.04,29.08s4.28,21.31,12.04,29.08l2.81,2.81c3.73,3.74,8.14,6.69,12.95,8.74-1.21.12-2.43.19-3.66.19-20.96,0-38.01-17.05-38.01-38.01ZM51.41,136.34c-6.56-1.68-12.57-5.12-17.39-9.93l-2.81-2.81c-7.18-7.18-11.13-16.72-11.13-26.88s3.95-19.7,11.13-26.88l8.33-8.33h1.57c5.98,0,11.64,1.39,16.68,3.86-10.99,7.39-18.24,19.94-18.24,34.15s7.88,28.28,20.56,35.62l.78.45.78-.45c12.68-7.34,20.56-20.99,20.56-35.62s-7.25-26.76-18.24-34.15c5.04-2.47,10.7-3.86,16.68-3.86h1.57l8.33,8.33c14.82,14.82,14.82,38.93,0,53.75l-2.81,2.81h0c-4.73,4.73-10.61,8.1-17.02,9.82-.03,0-.05-.01-.07-.02v.04c-.25.06-.48.14-.72.2-6.08,1.49-12.49,1.45-18.55-.11ZM118.7,99.52c0,20.96-17.05,38.01-38.01,38.01-1.23,0-2.45-.08-3.66-.19,4.81-2.05,9.22-5,12.96-8.74l2.81-2.81c16.03-16.03,16.03-42.12,0-58.16l-6.13-6.13h32.04v38.01Z"/>
    <path class="cls-1" d="M60.91,22.45c6.19,0,11.23-5.04,11.23-11.23S67.09,0,60.91,0s-11.23,5.04-11.23,11.23,5.04,11.23,11.23,11.23ZM60.91,3.11c4.47,0,8.11,3.64,8.11,8.11s-3.64,8.11-8.11,8.11-8.11-3.64-8.11-8.11,3.64-8.11,8.11-8.11Z"/>
  </g>
  <g>
    <g>
      <path class="cls-1" d="M179.28,80.96c-1.04-.94-2.2-1.72-3.49-2.35-1.29-.63-2.6-1.19-3.93-1.7-1.52-.59-2.99-1.21-4.4-1.88-1.41-.66-2.54-1.46-3.4-2.38-.86-.92-1.29-2.04-1.29-3.37,0-1.76.67-3.17,2.02-4.22,1.35-1.06,3.16-1.58,5.42-1.58,1.64,0,3.32.27,5.04.82,1.72.55,3.3,1.19,4.75,1.94l2.17-4.34c-1.6-.98-3.45-1.8-5.54-2.46-2.09-.66-4.51-1-7.24-1-2.42.08-4.57.6-6.45,1.55-1.88.96-3.35,2.27-4.43,3.93-1.08,1.66-1.61,3.61-1.61,5.83,0,1.84.35,3.4,1.06,4.69.7,1.29,1.64,2.37,2.81,3.25,1.17.88,2.44,1.62,3.81,2.23,1.37.61,2.72,1.16,4.05,1.67,1.41.55,2.74,1.16,3.99,1.85,1.25.68,2.26,1.5,3.02,2.46s1.14,2.16,1.14,3.61c0,1.68-.43,3.03-1.29,4.05s-1.94,1.77-3.25,2.26c-1.31.49-2.63.73-3.96.73-1.25,0-2.54-.19-3.87-.56-1.33-.37-2.6-.86-3.81-1.47-1.21-.61-2.29-1.24-3.23-1.91l-2.52,4.46c1.13.74,2.42,1.46,3.87,2.14,1.45.68,3.02,1.24,4.72,1.67,1.7.43,3.49.64,5.37.64,2.85,0,5.32-.53,7.39-1.58s3.66-2.5,4.78-4.34,1.67-3.87,1.67-6.1c0-2.03-.3-3.73-.91-5.1-.61-1.37-1.43-2.52-2.46-3.46Z"/>
      <polygon class="cls-1" points="203.76 82.48 223.28 82.48 223.28 77.03 203.76 77.03 203.76 64.13 225.63 64.13 225.63 58.67 198.07 58.67 198.07 101.07 226.45 101.07 226.45 95.62 203.76 95.62 203.76 82.48"/>
      <polygon class="cls-1" points="247.85 58.67 242.16 58.67 242.16 101.07 269.37 101.07 269.37 95.62 247.85 95.62 247.85 58.67"/>
      <polygon class="cls-1" points="284.5 101.07 290.19 101.07 290.19 83.07 307.25 83.07 307.25 77.67 290.19 77.67 290.19 64.13 309.66 64.13 309.66 58.67 284.5 58.67 284.5 101.07"/>
      <path class="cls-1" d="M348.59,95.09c-1.68.67-3.6,1-5.75,1-2.39,0-4.54-.41-6.45-1.23-1.92-.82-3.55-1.95-4.9-3.4-1.35-1.45-2.38-3.16-3.11-5.13-.72-1.97-1.08-4.11-1.08-6.42s.4-4.39,1.2-6.36c.8-1.97,1.91-3.7,3.31-5.19,1.41-1.48,3.03-2.64,4.87-3.46,1.84-.82,3.79-1.23,5.86-1.23s3.88.35,5.54,1.06c1.66.7,3.08,1.45,4.25,2.23l2.29-5.28c-1.49-.94-3.26-1.75-5.34-2.43-2.07-.68-4.38-1.03-6.92-1.03-3.05,0-5.85.55-8.41,1.64-2.56,1.09-4.78,2.63-6.66,4.6s-3.33,4.3-4.37,6.98c-1.04,2.68-1.55,5.6-1.55,8.77,0,2.89.5,5.62,1.5,8.18,1,2.56,2.41,4.82,4.25,6.77,1.84,1.96,4.07,3.5,6.71,4.63,2.64,1.13,5.6,1.72,8.88,1.76,1.91,0,3.68-.2,5.31-.59,1.62-.39,3.04-.88,4.25-1.47,1.21-.59,2.17-1.11,2.87-1.58l-2.41-5.04c-1.09.82-2.48,1.56-4.16,2.23Z"/>
      <polygon class="cls-1" points="384.89 56.91 366.36 101.07 371.93 101.07 384.82 69.53 397.21 101.07 403.71 101.07 385.24 56.91 384.89 56.91"/>
      <path class="cls-1" d="M440.66,81.1c1.13-1.31,1.94-2.76,2.43-4.37.49-1.6.73-3.24.73-4.93,0-2.15-.38-4.04-1.14-5.66-.76-1.62-1.82-2.99-3.17-4.1-1.35-1.11-2.93-1.95-4.75-2.52-1.82-.57-3.8-.85-5.95-.85h-11.26v42.4h5.69v-15.6h6.27c.48,0,.94-.03,1.39-.05l9.98,15.65h6.57l-10.65-17.13c1.53-.76,2.85-1.68,3.85-2.84ZM429.4,80.02h-6.16v-15.89h6.57c1.48,0,2.74.25,3.78.76,1.03.51,1.88,1.15,2.52,1.94.65.78,1.11,1.63,1.41,2.55.29.92.44,1.81.44,2.67s-.14,1.7-.41,2.64c-.27.94-.72,1.81-1.35,2.61-.63.8-1.5,1.46-2.61,1.96-1.11.51-2.51.76-4.19.76Z"/>
      <polygon class="cls-1" points="467.75 95.62 467.75 82.48 487.28 82.48 487.28 77.03 467.75 77.03 467.75 64.13 489.62 64.13 489.62 58.67 462.06 58.67 462.06 101.07 490.44 101.07 490.44 95.62 467.75 95.62"/>
    </g>
    <g>
      <path class="cls-1" d="M160.11,134.33s-.09-.02-.14-.04c0,0,.01,0,.02,0,.5-.26.88-.61,1.16-1.06s.42-.98.42-1.58c0-1-.33-1.74-1-2.21-.67-.48-1.58-.71-2.74-.71h-2.98v11.56h3.44c.49,0,.96-.06,1.42-.18.46-.12.87-.31,1.23-.58.36-.26.65-.6.86-1.01.21-.41.32-.9.32-1.48,0-.63-.18-1.17-.54-1.63-.36-.46-.85-.82-1.47-1.07ZM156.4,130.2h1.5c.63,0,1.13.14,1.5.42s.56.72.56,1.33c0,.51-.14.95-.43,1.3-.29.36-.75.54-1.39.54h-1.74v-3.58ZM160.23,138.05c-.21.27-.49.46-.85.59-.36.13-.75.19-1.18.19h-1.81v-3.57h1.71c.39,0,.78.06,1.15.17.37.11.68.3.92.55.24.26.36.61.36,1.06,0,.4-.1.74-.31,1.01Z"/>
      <polygon class="cls-1" points="169.49 135.21 174.81 135.21 174.81 133.72 169.49 133.72 169.49 130.2 175.45 130.2 175.45 128.71 167.93 128.71 167.93 140.28 175.67 140.28 175.67 138.79 169.49 138.79 169.49 135.21"/>
      <path class="cls-1" d="M185.46,128.23l-5.05,12.04h1.52l1.24-3.04h4.46l1.19,3.04h1.78l-5.04-12.04h-.1ZM183.72,135.9l1.72-4.22,1.66,4.22h-3.38Z"/>
      <path class="cls-1" d="M202.72,136.18c0,.52-.12.99-.37,1.4-.25.41-.58.73-1.01.97-.43.23-.91.35-1.46.35s-.99-.12-1.41-.35c-.42-.23-.75-.56-1-.97-.25-.41-.38-.88-.38-1.4v-7.47h-1.54v7.52c0,.84.19,1.58.58,2.21s.9,1.11,1.55,1.46c.65.34,1.38.51,2.19.51s1.54-.17,2.2-.51,1.18-.83,1.57-1.46.58-1.37.58-2.21v-7.52h-1.52v7.47Z"/>
      <polygon class="cls-1" points="209.75 130.2 212.78 130.2 212.78 140.28 214.33 140.28 214.33 130.2 217.43 130.2 217.43 128.71 209.75 128.71 209.75 130.2"/>
      <polygon class="cls-1" points="226.99 134.66 223.78 128.71 221.88 128.71 226.16 136.42 226.16 140.28 227.71 140.28 227.71 136.42 232.03 128.71 230.15 128.71 226.99 134.66"/>
      <path class="cls-1" d="M251.89,134.83c.31-.36.53-.75.66-1.19.13-.44.2-.88.2-1.34,0-.59-.1-1.1-.31-1.54-.21-.44-.5-.81-.86-1.12-.37-.3-.8-.53-1.29-.69-.5-.15-1.04-.23-1.62-.23h-3.07v11.56h1.55v-4.25h1.71c.13,0,.24-.02.37-.03l2.73,4.28h1.79l-2.92-4.69c.42-.21.79-.44,1.06-.76ZM248.82,134.54h-1.68v-4.33h1.79c.4,0,.75.07,1.03.21.28.14.51.31.69.53s.3.45.38.69c.08.25.12.49.12.73s-.04.46-.11.72c-.07.26-.2.49-.37.71-.17.22-.41.4-.71.54-.3.14-.69.21-1.14.21Z"/>
      <path class="cls-1" d="M268.42,130.35c-.55-.55-1.18-.98-1.89-1.29s-1.47-.47-2.28-.47-1.59.16-2.29.47-1.34.75-1.88,1.29-.97,1.18-1.27,1.89c-.3.71-.46,1.46-.46,2.26,0,.84.15,1.62.46,2.33.3.71.73,1.34,1.27,1.87.54.53,1.17.95,1.88,1.25.71.3,1.47.45,2.29.45s1.57-.15,2.28-.46c.71-.3,1.34-.72,1.89-1.26.55-.54.98-1.16,1.29-1.88.31-.71.46-1.48.46-2.3s-.15-1.55-.46-2.26c-.31-.71-.74-1.34-1.29-1.89ZM268.24,136.22c-.22.53-.53.99-.91,1.4-.38.41-.84.72-1.36.95-.52.23-1.08.34-1.68.34s-1.17-.11-1.7-.34c-.52-.23-.98-.55-1.37-.95-.4-.4-.7-.87-.93-1.4-.22-.53-.34-1.1-.34-1.7s.11-1.18.32-1.72c.21-.54.52-1.01.91-1.41s.85-.72,1.38-.96c.52-.24,1.09-.35,1.69-.35s1.16.11,1.68.34c.52.23.98.55,1.37.95.39.4.7.88.93,1.41s.34,1.11.34,1.72-.11,1.19-.34,1.72Z"/>
      <path class="cls-1" d="M282.98,136.18c0,.52-.12.99-.37,1.4-.25.41-.58.73-1.01.97-.43.23-.91.35-1.46.35s-.99-.12-1.41-.35c-.42-.23-.75-.56-1-.97-.25-.41-.38-.88-.38-1.4v-7.47h-1.54v7.52c0,.84.19,1.58.58,2.21s.9,1.11,1.55,1.46c.65.34,1.38.51,2.19.51s1.54-.17,2.2-.51,1.18-.83,1.57-1.46.58-1.37.58-2.21v-7.52h-1.52v7.47Z"/>
      <polygon class="cls-1" points="290.02 130.2 293.04 130.2 293.04 140.28 294.59 140.28 294.59 130.2 297.7 130.2 297.7 128.71 290.02 128.71 290.02 130.2"/>
      <rect class="cls-1" x="303.36" y="128.71" width="1.55" height="11.56"/>
      <polygon class="cls-1" points="319.99 137.08 311.51 128.36 311.43 128.36 311.43 140.28 312.99 140.28 312.95 132.03 321.45 140.65 321.49 140.65 321.49 128.71 319.96 128.71 319.99 137.08"/>
      <polygon class="cls-1" points="329.57 138.79 329.57 135.21 334.9 135.21 334.9 133.72 329.57 133.72 329.57 130.2 335.54 130.2 335.54 128.71 328.02 128.71 328.02 140.28 335.76 140.28 335.76 138.79 329.57 138.79"/>
    </g>
  </g>
</svg>