<?xml version="1.0" encoding="UTF-8"?>
<svg id="Capa_1" xmlns="http://www.w3.org/2000/svg" viewBox="0 0 490.44 64.79">
  <defs>
    <style>
      .cls-1 {
        fill: #caba9f;
      }
    </style>
  </defs>
  <path class="cls-1" d="M35.69,35.14c-1.52-1.37-3.21-2.51-5.1-3.43-1.88-.91-3.8-1.74-5.74-2.49-2.23-.86-4.37-1.77-6.43-2.74-2.06-.97-3.71-2.13-4.97-3.47-1.26-1.34-1.89-2.98-1.89-4.93,0-2.57.99-4.63,2.96-6.17,1.97-1.54,4.61-2.31,7.93-2.31,2.4,0,4.86.4,7.37,1.2,2.51.8,4.83,1.74,6.94,2.83l3.17-6.34c-2.34-1.43-5.04-2.63-8.1-3.6-3.06-.97-6.58-1.46-10.58-1.46-3.54.12-6.69.87-9.43,2.27-2.74,1.4-4.9,3.32-6.47,5.74-1.57,2.43-2.36,5.27-2.36,8.53,0,2.69.51,4.97,1.54,6.86,1.03,1.88,2.4,3.47,4.11,4.76,1.72,1.29,3.57,2.37,5.57,3.26,2,.89,3.97,1.7,5.91,2.44,2.06.8,4,1.7,5.83,2.7,1.83,1,3.3,2.2,4.41,3.6s1.67,3.16,1.67,5.27c0,2.46-.63,4.43-1.89,5.91s-2.84,2.58-4.76,3.3c-1.92.72-3.84,1.07-5.78,1.07-1.83,0-3.71-.27-5.66-.81-1.94-.54-3.8-1.26-5.57-2.14-1.77-.88-3.34-1.81-4.71-2.78L0,58.7c1.66,1.09,3.54,2.13,5.65,3.13,2.11,1,4.41,1.81,6.9,2.44,2.49.63,5.1.94,7.84.94,4.17,0,7.77-.77,10.8-2.31s5.36-3.66,6.98-6.34,2.44-5.66,2.44-8.91c0-2.97-.44-5.46-1.33-7.46-.89-2-2.09-3.68-3.6-5.06Z"/>
  <polygon class="cls-1" points="71.47 37.36 100.01 37.36 100.01 29.39 71.47 29.39 71.47 10.54 103.44 10.54 103.44 2.57 63.16 2.57 63.16 64.53 104.64 64.53 104.64 56.56 71.47 56.56 71.47 37.36"/>
  <polygon class="cls-1" points="135.91 2.57 127.6 2.57 127.6 64.53 167.37 64.53 167.37 56.56 135.91 56.56 135.91 2.57"/>
  <polygon class="cls-1" points="189.47 64.53 197.79 64.53 197.79 38.22 222.73 38.22 222.73 30.34 197.79 30.34 197.79 10.54 226.24 10.54 226.24 2.57 189.47 2.57 189.47 64.53"/>
  <path class="cls-1" d="M283.14,55.79c-2.46.97-5.26,1.46-8.4,1.46-3.49,0-6.63-.6-9.43-1.8-2.8-1.2-5.18-2.86-7.16-4.97-1.97-2.11-3.48-4.61-4.54-7.5-1.06-2.88-1.58-6.01-1.58-9.38s.59-6.41,1.76-9.3c1.17-2.88,2.78-5.41,4.84-7.58,2.06-2.17,4.43-3.86,7.11-5.06,2.68-1.2,5.54-1.8,8.57-1.8s5.67.52,8.1,1.54c2.43,1.03,4.5,2.12,6.21,3.26l3.34-7.71c-2.17-1.37-4.77-2.56-7.8-3.55-3.03-1-6.4-1.5-10.11-1.5-4.46,0-8.56.8-12.3,2.4-3.74,1.6-6.98,3.84-9.73,6.73s-4.87,6.28-6.39,10.2c-1.51,3.91-2.27,8.18-2.27,12.81,0,4.23.73,8.21,2.19,11.95,1.46,3.74,3.53,7.04,6.21,9.9,2.68,2.86,5.96,5.11,9.81,6.77,3.86,1.66,8.18,2.51,12.98,2.57,2.8,0,5.38-.29,7.75-.86,2.37-.57,4.44-1.29,6.21-2.14,1.77-.86,3.17-1.63,4.2-2.31l-3.51-7.37c-1.6,1.2-3.63,2.29-6.08,3.26Z"/>
  <polygon class="cls-1" points="336.19 0 309.11 64.53 317.25 64.53 336.08 18.44 354.18 64.53 363.7 64.53 336.7 0 336.19 0"/>
  <path class="cls-1" d="M417.69,35.35c1.66-1.91,2.84-4.04,3.56-6.38.71-2.34,1.07-4.74,1.07-7.2,0-3.14-.56-5.9-1.67-8.27-1.11-2.37-2.66-4.37-4.63-6-1.97-1.63-4.29-2.85-6.94-3.68-2.66-.83-5.56-1.24-8.7-1.24h-16.45v61.96h8.31v-22.8h9.17c.71,0,1.37-.04,2.03-.08l14.59,22.88h9.6l-15.56-25.03c2.24-1.11,4.16-2.46,5.62-4.15ZM401.23,33.76h-9V10.54h9.6c2.17,0,4.01.37,5.53,1.11,1.51.74,2.74,1.69,3.68,2.83.94,1.15,1.63,2.39,2.06,3.73.43,1.34.64,2.64.64,3.9s-.2,2.49-.6,3.86c-.4,1.37-1.06,2.64-1.97,3.81-.91,1.17-2.19,2.13-3.81,2.87-1.63.74-3.67,1.11-6.13,1.11Z"/>
  <polygon class="cls-1" points="457.28 56.56 457.28 37.36 485.81 37.36 485.81 29.39 457.28 29.39 457.28 10.54 489.24 10.54 489.24 2.57 448.96 2.57 448.96 64.53 490.44 64.53 490.44 56.56 457.28 56.56"/>
</svg>