<?xml version="1.0" encoding="UTF-8"?>
<svg id="Capa_1" xmlns="http://www.w3.org/2000/svg" viewBox="0 0 490.44 454.91">
  <defs>
    <style>
      .cls-1 {
        fill: #fff;
      }
    </style>
  </defs>
  <g>
    <path class="cls-1" d="M287.74,109.65l-42.52-42.52-42.52,42.52h-71.83v77.21c0,42.57,34.64,77.21,77.21,77.21,6.29,0,12.53-.78,18.58-2.27,6.08,1.5,12.32,2.27,18.56,2.27s12.37-.74,18.4-2.21c.08-.02.15-.05.23-.06,6.03,1.49,12.25,2.28,18.52,2.28,42.57,0,77.21-34.64,77.21-77.21v-77.21h-71.83ZM279.57,109.74c-12.41.45-24.09,3.79-34.34,9.45-10.26-5.65-21.94-9-34.34-9.45l34.34-34.34,34.34,34.34ZM279.44,186.86c0,24.83-13.07,48.03-34.23,60.95-21.15-12.93-34.22-36.12-34.22-60.95s13.72-48.37,34.22-60.92c20.51,12.55,34.22,35.16,34.22,60.92ZM136.71,186.86v-71.37h60.15l-11.5,11.5c-14.58,14.58-22.61,33.97-22.61,54.6s8.03,40.01,22.61,54.59l5.27,5.27c7.01,7.01,15.29,12.56,24.32,16.41-2.28.22-4.57.36-6.87.36-39.35,0-71.36-32.01-71.36-71.36ZM227.4,255.98c-12.32-3.16-23.6-9.61-32.64-18.65l-5.27-5.27c-13.48-13.48-20.9-31.4-20.9-50.46s7.42-36.98,20.9-50.46l15.63-15.63h2.95c11.23,0,21.86,2.61,31.32,7.24-20.64,13.88-34.24,37.44-34.24,64.12s14.79,53.1,38.6,66.88l1.46.85,1.46-.85c23.81-13.77,38.61-39.4,38.61-66.88s-13.61-50.25-34.24-64.12c9.46-4.64,20.09-7.24,31.32-7.24h2.96l15.63,15.63c27.82,27.83,27.82,73.1,0,100.93l-5.27,5.27h0c-8.88,8.88-19.91,15.21-31.96,18.44-.05-.01-.1-.02-.14-.03l-.02.08c-.44.12-.88.26-1.32.37-11.41,2.79-23.45,2.72-34.83-.2ZM353.73,186.86c0,39.35-32.01,71.36-71.37,71.36-2.3,0-4.6-.15-6.88-.37,9.03-3.85,17.3-9.38,24.33-16.4l5.27-5.27c30.1-30.1,30.1-79.09,0-109.19l-11.5-11.5h60.15v71.37Z"/>
    <path class="cls-1" d="M245.22,42.15c11.62,0,21.08-9.45,21.08-21.08S256.84,0,245.22,0s-21.08,9.45-21.08,21.08,9.45,21.08,21.08,21.08ZM245.22,5.84c8.4,0,15.23,6.83,15.23,15.23s-6.83,15.24-15.23,15.24-15.23-6.83-15.23-15.24,6.83-15.23,15.23-15.23Z"/>
  </g>
  <g>
    <path class="cls-1" d="M35.69,364.45c-1.52-1.37-3.21-2.51-5.1-3.43-1.88-.91-3.8-1.74-5.74-2.49-2.23-.86-4.37-1.77-6.43-2.74-2.06-.97-3.71-2.13-4.97-3.47-1.26-1.34-1.89-2.98-1.89-4.93,0-2.57.99-4.63,2.96-6.17,1.97-1.54,4.61-2.31,7.93-2.31,2.4,0,4.86.4,7.37,1.2,2.51.8,4.83,1.74,6.94,2.83l3.17-6.34c-2.34-1.43-5.04-2.63-8.1-3.6-3.06-.97-6.58-1.46-10.58-1.46-3.54.12-6.69.87-9.43,2.27-2.74,1.4-4.9,3.32-6.47,5.74-1.57,2.43-2.36,5.27-2.36,8.53,0,2.69.51,4.97,1.54,6.86,1.03,1.88,2.4,3.47,4.11,4.76,1.72,1.29,3.57,2.37,5.57,3.26,2,.89,3.97,1.7,5.91,2.44,2.06.8,4,1.7,5.83,2.7,1.83,1,3.3,2.2,4.41,3.6s1.67,3.16,1.67,5.27c0,2.46-.63,4.43-1.89,5.91s-2.84,2.58-4.76,3.3c-1.92.72-3.84,1.07-5.78,1.07-1.83,0-3.71-.27-5.66-.81-1.94-.54-3.8-1.26-5.57-2.14-1.77-.88-3.34-1.81-4.71-2.78l-3.68,6.51c1.66,1.09,3.54,2.13,5.65,3.13,2.11,1,4.41,1.81,6.9,2.44,2.49.63,5.1.94,7.84.94,4.17,0,7.77-.77,10.8-2.31,3.03-1.54,5.36-3.66,6.98-6.34s2.44-5.66,2.44-8.91c0-2.97-.44-5.46-1.33-7.46-.89-2-2.09-3.68-3.6-5.06Z"/>
    <polygon class="cls-1" points="71.47 366.67 100.01 366.67 100.01 358.7 71.47 358.7 71.47 339.85 103.44 339.85 103.44 331.88 63.16 331.88 63.16 393.84 104.64 393.84 104.64 385.87 71.47 385.87 71.47 366.67"/>
    <polygon class="cls-1" points="135.91 331.88 127.6 331.88 127.6 393.84 167.37 393.84 167.37 385.87 135.91 385.87 135.91 331.88"/>
    <polygon class="cls-1" points="189.47 393.84 197.79 393.84 197.79 367.53 222.73 367.53 222.73 359.65 197.79 359.65 197.79 339.85 226.24 339.85 226.24 331.88 189.47 331.88 189.47 393.84"/>
    <path class="cls-1" d="M283.14,385.1c-2.46.97-5.26,1.46-8.4,1.46-3.49,0-6.63-.6-9.43-1.8-2.8-1.2-5.18-2.86-7.16-4.97-1.97-2.11-3.48-4.61-4.54-7.5-1.06-2.88-1.58-6.01-1.58-9.38s.59-6.41,1.76-9.3c1.17-2.88,2.78-5.41,4.84-7.58,2.06-2.17,4.43-3.86,7.11-5.06,2.68-1.2,5.54-1.8,8.57-1.8s5.67.52,8.1,1.54c2.43,1.03,4.5,2.12,6.21,3.26l3.34-7.71c-2.17-1.37-4.77-2.56-7.8-3.55-3.03-1-6.4-1.5-10.11-1.5-4.46,0-8.56.8-12.3,2.4-3.74,1.6-6.98,3.84-9.73,6.73s-4.87,6.28-6.39,10.2c-1.51,3.91-2.27,8.18-2.27,12.81,0,4.23.73,8.21,2.19,11.95,1.46,3.74,3.53,7.04,6.21,9.9,2.68,2.86,5.96,5.11,9.81,6.77,3.86,1.66,8.18,2.51,12.98,2.57,2.8,0,5.38-.29,7.75-.86,2.37-.57,4.44-1.29,6.21-2.14,1.77-.86,3.17-1.63,4.2-2.31l-3.51-7.37c-1.6,1.2-3.63,2.29-6.08,3.26Z"/>
    <polygon class="cls-1" points="336.19 329.31 309.11 393.84 317.25 393.84 336.08 347.75 354.18 393.84 363.7 393.84 336.7 329.31 336.19 329.31"/>
    <path class="cls-1" d="M417.69,364.66c1.66-1.91,2.84-4.04,3.56-6.38.71-2.34,1.07-4.74,1.07-7.2,0-3.14-.56-5.9-1.67-8.27-1.11-2.37-2.66-4.37-4.63-6-1.97-1.63-4.29-2.85-6.94-3.68-2.66-.83-5.56-1.24-8.7-1.24h-16.45v61.96h8.31v-22.8h9.17c.71,0,1.37-.04,2.03-.08l14.59,22.88h9.6l-15.56-25.03c2.24-1.11,4.16-2.46,5.62-4.15ZM401.23,363.08h-9v-23.22h9.6c2.17,0,4.01.37,5.53,1.11,1.51.74,2.74,1.69,3.68,2.83.94,1.15,1.63,2.39,2.06,3.73.43,1.34.64,2.64.64,3.9s-.2,2.49-.6,3.86c-.4,1.37-1.06,2.64-1.97,3.81-.91,1.17-2.19,2.13-3.81,2.87-1.63.74-3.67,1.11-6.13,1.11Z"/>
    <polygon class="cls-1" points="457.28 385.87 457.28 366.67 485.81 366.67 485.81 358.7 457.28 358.7 457.28 339.85 489.24 339.85 489.24 331.88 448.96 331.88 448.96 393.84 490.44 393.84 490.44 385.87 457.28 385.87"/>
  </g>
  <g>
    <path class="cls-1" d="M120.72,442.45c-.06-.03-.14-.04-.2-.06,0,0,.02,0,.03,0,.72-.37,1.29-.89,1.69-1.54s.61-1.43.61-2.31c0-1.46-.49-2.54-1.46-3.24-.97-.69-2.31-1.04-4.01-1.04h-4.35v16.9h5.03c.72,0,1.41-.09,2.08-.27.67-.18,1.27-.46,1.8-.84.53-.38.95-.87,1.26-1.47.31-.6.47-1.32.47-2.16,0-.92-.26-1.72-.8-2.39-.53-.67-1.25-1.19-2.15-1.57ZM115.3,436.42h2.2c.92,0,1.65.2,2.2.61s.82,1.05.82,1.94c0,.75-.21,1.38-.63,1.9-.42.52-1.1.78-2.03.78h-2.55v-5.23ZM120.89,447.89c-.3.39-.72.68-1.24.87-.52.19-1.1.28-1.72.28h-2.64v-5.21h2.5c.58,0,1.14.08,1.68.25.55.16.99.43,1.34.81.35.37.53.89.53,1.54,0,.59-.15,1.08-.46,1.47Z"/>
    <polygon class="cls-1" points="134.42 443.73 142.2 443.73 142.2 441.56 134.42 441.56 134.42 436.42 143.13 436.42 143.13 434.24 132.15 434.24 132.15 451.14 143.46 451.14 143.46 448.97 134.42 448.97 134.42 443.73"/>
    <path class="cls-1" d="M157.76,433.54l-7.39,17.6h2.22l1.81-4.44h6.51l1.74,4.44h2.59l-7.36-17.6h-.14ZM155.22,444.74l2.52-6.17,2.42,6.17h-4.94Z"/>
    <path class="cls-1" d="M182.98,445.16c0,.76-.18,1.45-.54,2.04-.36.6-.85,1.07-1.47,1.42-.62.34-1.33.51-2.13.51s-1.45-.17-2.06-.51c-.61-.34-1.1-.81-1.46-1.42-.37-.6-.55-1.28-.55-2.04v-10.91h-2.24v10.98c0,1.23.28,2.31.84,3.23s1.32,1.63,2.27,2.13c.95.5,2.02.75,3.2.75s2.26-.25,3.21-.75,1.72-1.21,2.29-2.13.85-2,.85-3.23v-10.98h-2.22v10.91Z"/>
    <polygon class="cls-1" points="193.27 436.42 197.68 436.42 197.68 451.14 199.95 451.14 199.95 436.42 204.48 436.42 204.48 434.24 193.27 434.24 193.27 436.42"/>
    <polygon class="cls-1" points="218.45 442.94 213.76 434.24 210.98 434.24 217.24 445.51 217.24 451.14 219.51 451.14 219.51 445.51 225.82 434.24 223.07 434.24 218.45 442.94"/>
    <path class="cls-1" d="M254.85,443.18c.45-.52.78-1.1.97-1.74.2-.64.29-1.29.29-1.96,0-.86-.15-1.61-.46-2.26-.3-.64-.72-1.19-1.26-1.64-.54-.44-1.17-.78-1.89-1-.72-.23-1.52-.34-2.37-.34h-4.49v16.9h2.27v-6.22h2.5c.2,0,.36-.03.54-.04l4,6.26h2.62l-4.26-6.85c.61-.3,1.15-.65,1.55-1.11ZM250.36,442.75h-2.45v-6.33h2.62c.59,0,1.1.1,1.51.3.41.2.75.46,1,.77s.45.65.56,1.02c.12.37.17.72.17,1.06s-.06.68-.16,1.05c-.11.37-.29.72-.54,1.04-.25.32-.6.58-1.04.78-.45.2-1,.3-1.67.3Z"/>
    <path class="cls-1" d="M279.01,436.64c-.8-.8-1.72-1.43-2.76-1.89s-2.15-.69-3.33-.69-2.32.23-3.35.69-1.95,1.09-2.75,1.89-1.41,1.72-1.86,2.76c-.44,1.04-.67,2.14-.67,3.31,0,1.23.22,2.37.67,3.41.45,1.04,1.06,1.96,1.86,2.74.8.78,1.71,1.39,2.75,1.82,1.04.44,2.15.65,3.35.65s2.29-.22,3.33-.67c1.04-.44,1.96-1.06,2.76-1.85.8-.79,1.43-1.7,1.88-2.75.45-1.04.68-2.16.68-3.36s-.23-2.27-.68-3.31c-.45-1.03-1.08-1.96-1.88-2.76ZM278.74,445.22c-.33.77-.77,1.45-1.33,2.04-.56.59-1.22,1.06-1.99,1.39-.76.34-1.58.5-2.45.5s-1.71-.17-2.48-.5c-.76-.33-1.43-.8-2.01-1.39-.58-.59-1.03-1.27-1.36-2.04-.33-.77-.49-1.6-.49-2.49s.16-1.73.47-2.51c.31-.79.76-1.48,1.33-2.07s1.25-1.06,2.01-1.4c.76-.34,1.59-.52,2.48-.52s1.69.17,2.46.5c.76.34,1.43.8,2.01,1.39.58.59,1.03,1.28,1.36,2.07s.49,1.62.49,2.51-.16,1.74-.49,2.51Z"/>
    <path class="cls-1" d="M300.29,445.16c0,.76-.18,1.45-.54,2.04-.36.6-.85,1.07-1.47,1.42-.62.34-1.33.51-2.13.51s-1.45-.17-2.06-.51c-.61-.34-1.1-.81-1.46-1.42-.37-.6-.55-1.28-.55-2.04v-10.91h-2.24v10.98c0,1.23.28,2.31.84,3.23s1.32,1.63,2.27,2.13c.95.5,2.02.75,3.2.75s2.26-.25,3.21-.75,1.72-1.21,2.29-2.13.85-2,.85-3.23v-10.98h-2.22v10.91Z"/>
    <polygon class="cls-1" points="310.57 436.42 314.99 436.42 314.99 451.14 317.25 451.14 317.25 436.42 321.79 436.42 321.79 434.24 310.57 434.24 310.57 436.42"/>
    <rect class="cls-1" x="330.06" y="434.24" width="2.27" height="16.9"/>
    <polygon class="cls-1" points="354.37 446.47 341.98 433.73 341.86 433.73 341.86 451.14 344.13 451.14 344.09 439.09 356.49 451.68 356.56 451.68 356.56 434.24 354.32 434.24 354.37 446.47"/>
    <polygon class="cls-1" points="368.37 448.97 368.37 443.73 376.15 443.73 376.15 441.56 368.37 441.56 368.37 436.42 377.09 436.42 377.09 434.24 366.1 434.24 366.1 451.14 377.41 451.14 377.41 448.97 368.37 448.97"/>
  </g>
</svg>